<?xml version="1.0" encoding="UTF-8"?>
<svg id="Capa_2" data-name="Capa 2" xmlns="http://www.w3.org/2000/svg" viewBox="0 0 320.66 655.75">
  <defs>
    <style>
      .cls-1 {
        fill: #000;
        stroke-width: 0px;
      }
    </style>
  </defs>
  <g id="Capa_1-2" data-name="Capa 1">
    <path class="cls-1" d="M95.4,46.21c5.39-4.82,10.63-9.68,16.06-14.33,11.77-10.09,24.28-19.15,38.15-26.18,8.09-4.1,16.56-6.8,25.88-5.27,6.87,1.13,12.99,4.12,19.08,7.23,1.01.52,2.01,1.08,2.95,1.72,6.63,4.5,13.71,8.05,21.21,10.9,17.04,6.48,31.32,17.11,44.08,29.94.23.23.52.39,1.06.79,4.43-2.36,8.96-4.85,13.57-7.18,1.87-.94,3.88-1.76,5.92-2.2,9.54-2.05,18.27,3.05,20.28,12.82,2.87,13.93,1.84,27.53-6.17,39.96-1.83,2.83-3,6.09-4.56,9.1-1.4,2.69-.59,4.79,1.07,7.15,7.62,10.8,14.58,21.99,19.12,34.5.59,1.63,1.16,3.28,1.82,5.15-2.02.5-3.54.88-5.72,1.43,9.56,20.4,13.11,41.57,10.75,64.01-1.6-.19-2.83-.33-4.3-.5-.14.57-.34,1.16-.42,1.77-1.6,12.25.49,24.32,1.86,36.43,2.01,17.67,3.06,35.34,1.65,53.14-1.73,21.84-6.91,42.69-16.58,62.38-1.39,2.83-2.22,5.67-2.46,8.83-1.44,19-2.75,38.02-6.08,56.81-2.65,14.96-7.15,29.41-12.27,43.67-7.65,21.31-16.82,41.99-26.37,62.5-4.75,10.19-7.25,20.84-6.79,32.18.13,3.21,1.14,5.26,4.17,6.33,1.99.7,3.95,1.5,5.9,2.32,5.19,2.19,8.94,5.85,11.13,11.06,2.94,7,4.88,14.2,3.64,21.86-1.21,7.48-4.64,10.52-12.15,10.7-3.42.08-6.52.54-9.8,1.92-2.97,1.25-6.69.9-10.08.92-2.82.01-5.28.39-7.83,1.92-5.36,3.22-11.37,2.1-17.18,1.61-4.33-.37-8.64-.99-13.34-1.55-.13,3.02-.25,5.59-.36,8.16-.21,4.82-2.52,8.06-6.78,10.47-11.71,6.61-24.26,6.8-37.03,5.2-3.78-.48-7.35-.44-11.09.39-9.99,2.23-20.02,1.84-30.04-.15-2.49-.49-5.18-.66-7.68-.29-6.68.97-13.27,1.02-19.9-.32-6.12-1.24-9.77-4.77-11.06-10.86-1.27-5.99-1.34-11.95.3-17.95-3.96-1.08-7.78-2.21-11.66-3.13-.84-.2-1.86.45-2.81.58-4.51.6-9.01,1.32-13.54,1.68-4.02.32-7.87-.88-10.99-3.31-2.09-1.63-3.89-1.75-6.25-1.16-2.18.54-4.5.84-6.74.78-4.58-.12-7.46-2.45-8.14-6.91-1.04-6.8-1.05-13.64.7-20.37,1.1-4.21,3.45-7.73,6.61-10.65,2.14-1.98,4.46-3.77,6.75-5.68,0-6.23.38-12.6-.07-18.91-1.61-22.77-2.57-45.53-.68-68.33.15-1.81-.33-3.92-1.19-5.53-10.02-18.63-14.42-38.62-14.73-59.63-.07-4.56-.29-9.13-.12-13.68.43-11.99-1.12-23.64-4.54-35.17-4.96-16.72-8.38-33.8-10.29-51.15-1.32-12.01-1.62-24.04-.88-36.1,1.22-19.69,4.13-39.16,7.14-58.63,1.91-12.38,2.46-24.97,4.24-37.37,2.19-15.29,4.81-30.54,7.65-45.73,2.46-13.15,8.77-24.42,18.22-33.9,3.91-3.92,8.14-7.55,11.78-11.7,5.24-5.99,10.19-12.25,15-18.59.92-1.21.86-3.31.89-5.01.11-6.34-.43-12.73.17-19.02,1.42-14.75,12.86-20.71,25.92-13.88,1.28.67,2.58,1.32,3.99,2.03ZM50.24,110.14c-.68.56-1.45,1.04-2.02,1.69-7.33,8.4-13.48,17.5-17.06,28.21-4.14,12.4-6.64,25.19-8.55,38.05-2.34,15.78-4.11,31.65-5.7,47.52-1.35,13.45-2.33,26.95-.46,40.46.1.73-.05,1.5-.13,3.29-1.99-2.52-3.39-4.29-5.2-6.58-.22,1.34-.39,1.93-.4,2.53-.31,13.67-1.13,27.36-.76,41.01.51,18.7,4,36.89,12.49,53.82,2.64,5.26,5.12,10.63,8.68,15.31-2.89-9.53-6.32-18.86-8.53-28.47-5.43-23.66-6.76-47.67-4.84-71.87.85-10.73,2.2-21.38,5.63-31.65.53-1.58,1.09-3.16,1.64-4.74,1.41,10.55,2.02,20.86,3.31,31.08,1.3,10.31,4.68,20.1,9.14,29.55-4-28.56-3.45-56.9,2.03-85.14,1.48,23.15,4.1,46.07,10.12,68.5,6.03,22.46,14.46,44.02,24.26,65.18-5.96-5.63-11.19-11.77-15.48-18.62-4.32-6.9-8.3-14.03-12.85-21.77-.28,1.61-.44,2.36-.54,3.12-2.23,17.03-.63,33.87,3.32,50.43,3.74,15.66,8.36,31.11,12.56,46.66,1.2,4.44,2.3,8.91,3.44,13.36-.33.14-.67.27-1,.41-2.49-4.67-4.98-9.34-7.95-14.92-4.29,22.68.69,41.65,15.13,57.94,9.32,10.52,20.16,19.41,31.32,27.9.91.69,1.69,1.54,2.53,2.31-12.2-3.22-23.24-8.5-33.81-15.31-.07,8.68,8.86,31.33,14.01,35.97,2.32-3.36,3.65-7.52,7.95-10.05.1,1.26.26,2.01.21,2.75-.47,7.64,1.4,14.76,4.16,21.85,4.59,11.83,8.72,23.83,13.02,35.77.53,1.46.9,2.98,1.34,4.47-1.53-.95-2.33-2.16-3.04-3.42-5.38-9.67-10.68-19.38-16.13-29.01-2.39-4.23-5.43-7.96-9.62-10.8.29,1.96.89,3.76,1.56,5.54,5.65,14.91,11.36,29.79,16.96,44.72,2.76,7.37,4.21,15.03,4.38,22.92.02,1.1.28,2.19.35,2.7,4.55,1.42,8.66,2.7,13.33,4.15,9.89-11.48,21.6-12.69,34.32-3.01,6.01-5.04,13-5.82,20.78-5.23-1.4-3.57-2.53-6.43-3.65-9.3.36-.22.73-.43,1.09-.65,3.15,3.66,6.29,7.32,9.46,10.97,3.87,4.45,8.98,6.91,14.73,9.86-.33-2.24-.46-3.51-.71-4.76-1.77-8.83-5.93-16.52-11.55-23.43-5.65-6.94-9.47-14.67-11.75-23.35-2.53-9.59-5.47-19.09-8.59-28.51-1.37-4.13-3.08-8.35-5.59-11.84-4.45-6.19-9.17-12.33-14.6-17.65-10.34-10.14-21.27-19.67-31.92-29.49-1.32-1.22-3.2-2.04-3.92-4.79,13.91,6.99,26.97,14,39.06,23.07-5.77-15.32-11.53-30.64-17.3-45.97.39-.17.77-.34,1.16-.51,9.4,17.5,18.81,35.01,28.21,52.51.38-.1.76-.2,1.14-.3-.9-11.61-1.68-23.22-2.77-34.81-.28-3.01-.96-6.25-2.42-8.83-7.3-12.85-16.42-24.19-28.34-33.17-7.26-5.47-15.47-8.94-23.77-12.3-7.82-3.16-14.62-7.76-20.38-13.94-9.44-10.13-14.89-22.39-19.14-35.31-.2-.59-.02-1.31-.02-3.05,2.39,3.71,4.19,6.39,5.88,9.15,10.12,16.59,23.83,28.43,42.71,34.4,17.49,5.52,31.9,15.98,43.45,30.29.47.58,1.08,1.05,1.62,1.57.32-.11.64-.22.95-.33-1.13-8.71-2.25-17.43-3.5-27.12,3.31,3.38,6.07,6.19,9.53,9.72-.63-12.06-2.91-22.49-9.74-31.52-5.73-7.58-12.38-14.26-20.13-19.79-16.71-11.93-28.03-27.9-35.23-46.95-1-2.64-1.66-5.39-2.65-8.63,1.03.51,1.41.59,1.59.81.62.75,1.21,1.53,1.74,2.35,8.72,13.4,19.95,24.35,32.58,34.07,6.69,5.15,13.1,10.74,19.18,16.6,7.44,7.15,13.64,15.3,17.04,25.26.19.55.65,1.01,1.39,2.12,2.15-12.63.15-23.82-5.98-34.37.25-.2.49-.4.74-.6,2.02.97,4.04,1.93,7.04,3.37-3.32-6.89-6.89-12.22-11.29-17.03-5.55-6.08-12.12-10.79-19.2-14.92-13.77-8.04-24.23-19.07-30.2-34.05-.28-.71-.74-1.35-1.21-2.2-5.14,2.86-8.12,7.48-11.21,12.39-6.76-7.29-13.06-14.06-17.97-22.01-4.86-7.87-7.2-16.79-10.45-26.06-2.1,2.84-3.68,4.97-5.62,7.6-8.08-14.46-10.07-29.55-9.96-45.82-1.9,1.66-3.02,2.64-4.76,4.15-.92-23.72,1.58-45.89,11.86-66.76-2.28-.86-4.07-1.53-5.95-2.24,6.08-14.36,13.63-27.56,24.05-39.32-2.56-4.72-5-9.2-7.69-14.16-1.19,1.65-2.07,2.61-2.67,3.72-5.18,9.59-10.72,19.01-15.37,28.85-10.06,21.31-16.26,43.89-20.98,66.92-.27,1.3-.74,2.55-1.12,3.83,1.31-29.92,7.03-58.75,19.15-86.3ZM100.02,144.12c.67,5.73,1.61,10.83,1.79,15.96.25,6.99-.19,14-.11,21,.06,4.78,1.41,9.3,3.68,13.54,1.08,2.02,2.56,3.05,4.98,3.3,4.48.47,8.91,1.36,14.05,2.18,3.08-2.04,6.92-4.57,11.44-7.56-.05,3.73-2.5,4.58-3.9,6.11-1.64,1.8-3.61,3.31-5.19,5.16-1.45,1.7-2.57,3.68-3.83,5.53-5.84-3.91-9.57-3.2-15.25,2.99,3.49,8.58,10.57,14.28,17.09,21.12,2.63-7.71,5.19-14.67,13.45-17.32-1.59,3.05-3.17,6.09-4.97,9.55,3.83,2.35,7.21,4.58,10.74,6.53,3.38,1.87,6.92,3.46,10.38,5.17-6.82.69-9.78-.31-22.47-6.82-2.53,4.92-2.42,5.53,1.5,8.38,4.43,3.22,9.33,5.25,14.79,5.92,1.43.17,3.29-.25,4.02,2.17-4,1.37-7.9,1.01-11.56.06-3.52-.91-6.81-2.71-10.23-4.13,3.21,6.96,8.55,10.88,16.35,11.01,3.41.06,6.82-.37,10.23-.51.81-.03,1.62.18,2.43.28-5.49,3.92-11.63,4.55-18.63,4.59,6.26,6.96,12.94,10.49,21.66,8.41,3.15-.75,6.27-1.81,9.25-3.08,3.76-1.6,7.27-3.7,9.59-7.26,2.52-3.87,2.07-6.83-1.41-9.85-1.35-1.17-2.99-2.22-3.83-3.7-2.78-4.88-7.01-8-11.71-10.75-4.17-2.44-6.51-6.31-7.54-10.94-.24-1.08.12-2.3.27-4.32,2.25,2.47,3.82,4.19,5.65,6.21,5.53-5.46,11.15-4.43,16.87-1.24,3.7,2.07,7.45,1.95,11.24.19,1.76-.82,3.58-1.54,5.4-2.23,4.4-1.67,7.78.31,10.77,3.51,1.98-2.1,3.67-3.89,5.84-6.2.89,6.06-1.22,10.03-4.94,13.32-5.85,5.16-11.76,10.25-17.61,15.41-4.35,3.83-4.46,8.42-.31,12.64,3.39,3.44,7.64,5.44,12.11,7.09,6.32,2.32,12.46,1.84,18.5-.93,2.5-1.14,4.65-2.66,6.22-5.62-6.15-.64-11.97-.58-16.89-4.19,1.21-.61,2.35-.57,3.49-.61,4.52-.17,9.09-.06,13.56-.65,4.1-.54,6.85-3.3,8.7-7.18-11.91,2.11-18.19,2.24-22.23.32,2.26-1.52,4.68-1.51,7-1.84,6.05-.86,11.8-2.53,16.62-6.49,3.03-2.49,3.09-3.57.9-7.53-3.5,1.68-6.92,3.57-10.52,5-4.66,1.85-8.31,2.1-11.08,1.18,1.39-.61,2.59-1.05,3.7-1.65,4.28-2.32,8.63-4.54,12.76-7.1,3.4-2.11,3.3-2.67,1.98-6.41-.71-2.01-2.34-3.82-1.82-6.46,3.63,1.43,5.91,4.07,7.63,6.95,1.79,2.99,2.88,6.4,4.42,9.96,3.42-2.3,6.76-4.31,9.84-6.67,4.19-3.22,6.19-7.82,7.38-12.87.51-2.15-.23-3.51-2.08-4.36-4.34-1.99-8.72-3.73-13.1-1.05-3.9-3.91-7.59-7.55-11.2-11.26-1.16-1.19-2.73-2.34-1.81-5.13,4.29,3.51,8.25,6.76,11.52,9.43,4.02-.97,7.25-2.13,10.57-2.48,7.33-.78,8.99-2.11,11.01-9.38,2.35-8.49,2.05-17.16,1.29-25.73-.59-6.78,1.31-13.07,1.93-20.23,1.09.91,1.81,1.3,2.22,1.89,3.19,4.7,5.05,9.91,4.86,15.6-.21,6.17-.92,12.33-1.29,18.5-.31,5.18-.69,10.38-.62,15.56.08,6.23-.04,12.41-2,18.36-2.71,8.21-7.63,14.63-15.63,18.44-3.23,1.54-6.39,3.22-9.48,5.02-1.05.61-2.33,1.68-2.54,2.73-.68,3.39-.91,6.87-1.34,10.5,5.65-.65,10.49-2.48,15.09-4.99,1.28-.7,2.51-1.95,3.81-2.03,1.33-.08,2.73.97,4.3,1.62,9.55-17.26,16.05-35.04,13.77-55.09,1.14-.15,2.03-.27,3.21-.42,0-1.39.04-2.68,0-3.96-.35-9.44-.81-18.87-1.05-28.31-.3-11.56-3.67-22.08-10.27-31.58-.55-.79-.81-1.77-1.21-2.67.31-.22.62-.45.93-.67,2.67,2.55,5.53,4.92,7.96,7.67,7.56,8.55,12.34,18.03,11.64,30.05-.35,6.05,1,12.31,2.28,18.33,2.06,9.64,2.95,19.3,2.15,29.12-.11,1.32-.49,2.61-.87,4.58-1.8-1.63-2.92-2.65-4.99-4.52,1.13,12.13-1.24,22.73-5.12,32.9-3.88,10.16-8.66,19.94-17.15,27.64-1.79-1-3.3-1.9-4.86-2.72-2.59-1.37-5.16-2.77-7.82-3.98-.95-.43-2.3-.73-3.2-.39-4.09,1.55-8.14,3.23-12.09,5.12-2.5,1.2-5.3,2.17-6.84,4.81,4.72-.32,9.28-1.05,13.78-.81,4.33.24,8.63,1.39,12.9,2.33,4.59,1.01,7.78,4.3,11,7.63,12.28-13.71,19.47-29.47,22.79-47.27,5.06,1.48,6.23,6.53,10.09,8.99,3.23-18.03,2.17-35.53-1.82-52.97.31-.1.62-.2.94-.31,2.4,1.96,4.8,3.91,7.93,6.46-.28-9.08-1.85-16.88-4.43-24.38-2.63-7.64-5.91-15.06-8.92-22.62,1.68-.69,3.3-1.35,5.21-2.12-.51-1.39-.75-2.68-1.39-3.73-4.56-7.5-9.14-14.98-13.82-22.39-2.08-3.3-4.72-6.27-6.57-9.68-4.47-8.2-9.69-15.81-16.18-22.54-1.2-1.24-2.25-2.63-3.47-4.07,2.99-2.08,5.57-3.88,8.16-5.68-.11-.3-.21-.59-.32-.89h-9.08c6.59-6.05,12.68-11.65,18.78-17.23,4.14-3.79,8.27-7.65,15.08-5.54-2.05-3.47-4.74-3.99-7.56-3.3-2.65.65-5.29,1.66-7.71,2.93-4.32,2.26-8.45,4.89-12.71,7.27-9.27,5.17-19.27,8.37-29.83,10.37,1.39-1.26,2.78-2.51,4.54-4.1-3.15-1.82-6.15-3.4-8.99-5.23-19.09-12.33-40.28-14.16-62.04-11.72-16.36,1.83-30.34,10.06-44.36,18.33.8,1.17,1.44,2.12,2.5,3.68-2.19-.29-3.63-.41-5.03-.69-6.45-1.26-12.51-3.63-18.2-6.85-4.53-2.56-8.89-5.42-13.33-8.13-3.48-2.13-6.95-4.24-11.22-4.4-2.93-.11-5.36.93-6.24,3.68-1.03,3.2-1.91,6.6-1.98,9.93-.23,10.29,2.33,19.99,7.35,29,2.19,3.92,4.48,7.79,6.83,11.87,2.66-2.34,1.01-3.97.23-5.64-3.42-7.36-7.09-14.63-10.16-22.13-2.06-5.03-2.57-10.57-1.14-15.86,2.05-7.61,3.03-10.25,10.74-3.71.37.32.74.64,1.1.96,6.57,5.82,13.14,11.64,19.69,17.48.19.17.18.57.41,1.42-3.16.6-6.3,1.19-9.43,1.78l-.13,1.06c3.47,1.45,6.95,2.9,10.46,4.37-3.32,3.66-6.85,7.02-9.75,10.87-8.32,11.03-16.43,22.22-24.51,33.43-2.09,2.89-3.82,6.05-5.65,9.13-.54.91-.86,1.95-1.28,2.95,2.12.76,3.91,1.4,5.66,2.03-3.55,8.49-7.33,16.57-10.31,24.94-2.94,8.27-5.02,16.83-4.7,26.52,2.8-2.48,4.92-4.36,7.78-6.89-.95,9.35-2.07,17.5-2.53,25.68-.47,8.35-.35,16.75,2.18,25.37,3.21-3.05,4.67-7.33,9.31-8.01,3.29,17.81,10.05,33.65,22.27,46.91,10.99-10.95,24.42-9.15,37.67-8.69-1.7-1.46-3.39-2.72-5.24-3.65-3.48-1.76-7.16-3.14-10.57-5.03-2.03-1.13-3.76-1.5-5.93-.55-4.43,1.91-8.95,3.63-13.69,5.54-14.55-16.18-21.75-35.26-21.4-57.6-1.71,1.26-2.8,2.07-4.48,3.31-.41-3.52-1.19-6.4-1-9.22.54-8.27,1.01-16.58,2.37-24.73,1.26-7.56,2.64-15.01,2.54-22.75-.05-3.64.71-7.49,1.98-10.92,3.49-9.43,10.12-16.58,17.84-22.78.37-.3,1.09-.16,1.74-.24-.07.53-.05.71-.12.83-.4.7-.78,1.42-1.26,2.07-6.35,8.57-10.21,18.12-11.06,28.77-.58,7.3-.87,14.62-1.28,21.93-.28,4.99-.55,9.97-.84,15.14,1.69-.36,2.96-.63,4.37-.93-3.22,24.58,4.83,40.74,13.46,53.62,1.63-1.51,3.23-3,4.87-4.52,6.31,3.69,11.36,8.87,18.25,11.8-.55-3.84-.88-7.04-1.52-10.19-.24-1.18-.96-2.45-1.83-3.28-1.88-1.79-4.02-3.3-6.02-4.96-4.13-3.43-8.32-6.77-12.32-10.34-5.95-5.29-8.82-12.15-8.65-19.99.23-10.62-1.01-21.12-1.8-31.67-.37-4.98,0-10.09.77-15.04.55-3.57,1.97-7.15,6.05-9.99ZM229.77,427.28c.78.1,1.14.26,1.39.16,22.25-8.96,40.38-22.89,52.81-43.71,9.63-16.12,16.87-33.2,17.81-52.15.69-13.8.05-27.67.02-41.51,0-.79.19-1.59.29-2.38.37-.02.74-.03,1.11-.05,1.45,7.77,2.9,15.54,4.34,23.27.17-.14.56-.3.63-.55.28-.93.62-1.88.64-2.83.37-15.46.74-30.92,1-46.39.04-2.41-.43-4.83-.69-7.25-.01-.12-.22-.26-.36-.31-.12-.04-.28.05-.58.11-.88,1.99-1.8,4.07-3.02,6.82-1.75-3.34-3.05-5.82-4.36-8.31-2.93,8.2-4.21,16.47-9.06,24.14-1.04-2.14-1.74-3.56-2.71-5.56-2.35,7.69-4.28,14.59-6.59,21.35-2.36,6.92-4.88,13.8-7.7,20.55-2.76,6.6-5.78,13.1-9.04,19.46-3.27,6.36-6.8,12.61-10.56,18.7-3.76,6.09-7.77,12.04-11.98,17.82-4.31,5.92-8.84,11.7-13.58,17.27-4.52,5.3-9.44,10.26-14.19,15.37,24.07-13.97,43.24-32.94,58.47-55.93,9.11-13.75,16.55-28.38,22.35-43.84.48-1.29.63-2.94,2.99-4.31-8.1,51.98-30.44,95.21-69.42,130.05ZM102.65,52.08c4.81,5.05,10.24,7.26,15.48,9.81,2.27,1.1,4.19.96,6.38-.38,7.62-4.69,15.35-9.19,23.03-13.78,6.59-3.93,13.4-7.33,20.88-9.28,8.71-2.27,17.5-1.24,26.24-.63,10.4.73,20.02,4.12,28.86,9.67,6.2,3.89,12.35,7.85,18.56,11.71,1.04.65,2.48,1.56,3.44,1.29,3.53-.98,7.15-1.97,10.72-4.66-18.76-18.06-40.34-28.59-66.35-29.54.02-.38.04-.76.06-1.15,3.02-1.24,6.04-2.48,9.63-3.96-5.38-3.76-10.69-6.06-16.11-8.21-7.74-3.07-15.53-3.29-23.38-.67-2.92.98-5.79,2.18-8.56,3.53-15.37,7.47-28.65,17.9-41.15,29.41-2.5,2.3-5.09,4.5-7.74,6.84ZM172.36,624.67c1.69-1.03,2.72.01,3.29,1.14,1.83,3.59,3.59,7.24,5.12,10.97.72,1.75.85,3.74,1.37,6.22,2.98-1.16,5.5-2.17,8.04-3.14,2.82-1.08,3.77-3.12,3.8-6.1.12-9.34-3.64-16.96-9.63-23.85-7.94-9.13-22.73-8.98-29.54-2.39-.55.53-1.36.78-1.87,1.06-3.3-1.66-6.24-3.44-9.39-4.66-8.58-3.32-18.08-.67-23.64,6.67-6.92,9.14-7.76,19.43-4.97,30.19.36,1.38,1.64,3.12,2.89,3.55,4.46,1.55,9.11,1.85,13.86.79.62-7.37.46-14.69,4.87-21.86,5.35,6.85,4.82,14.33,5.58,21.62,2.52-.15,4.56-.28,6.37-.39,0-5.3-.28-10.03.08-14.71.32-4.18,1.28-8.31,2.11-12.43.14-.69,1.03-1.22,2.31-2.65-.59,10.91.15,20.54,4.07,29.55h15.19c2.35-6.83-1.33-13.28.07-19.6ZM217.59,300.3c.29-.19.65-.31.81-.56,4.42-6.88,4.27-13.9.09-20.71-4.29-6.99-12.18-6.52-18.87-8.47-.26-.08-.61.2-.92.27-9.36,2.08-18.71,1.97-28.06-.12-1.21-.27-2.61-.41-3.77-.07-2.96.86-5.92,1.84-8.73,3.1-10.2,4.61-12.96,16.76-5.87,25.51,1.12-1.47,2.24-2.95,3.93-5.18,2.05,5.23,3.69,9.86,8.47,12.02.82-1.44,1.51-2.64,2.39-4.2,2.52,2.06,4.72,3.86,7.05,5.77.59-1.1,1.03-1.91,1.86-3.45,3.6,3.94,6.42,7.02,9.29,10.16,3.16-3.07,6.14-5.97,9-8.75,1.27.97,1.98,1.51,3.45,2.63,2.04-2.27,3.95-4.41,5.96-6.65.92,1.49,1.79,2.91,3.02,4.89,3.04-3.54,5.71-6.67,8.61-10.05.86,1.44,1.58,2.64,2.31,3.84ZM289.22,398.56c-.34-.09-.67-.19-1.01-.28-.63,1.06-1.26,2.11-1.9,3.16-2.44,4.03-4.76,8.14-7.39,12.03-1.42,2.1-2.23,4.17-2.47,6.7-1.59,16.72-5.08,33.1-9.32,49.31-6.76,25.85-15.76,50.92-26.55,75.35-.48,1.08-.7,2.28-1.04,3.43,1.81-1.88,2.96-4.02,3.93-6.23,6.78-15.48,13.74-30.89,20.24-46.5,9.96-23.92,18.31-48.36,22.44-74.05,1.22-7.61,2.05-15.29,3.06-22.93ZM115.93,611.58c-6.13-4.87-12.32-4.72-18.24.2-7.76,6.45-11.09,15.04-11.4,24.91-.16,5.03,1.6,6.63,7.28,6.91,1.18-5.5,1.24-11.59,6.82-15.86,3.67,5.47,1.25,11.42,2.51,17,2.2-.21,4.19-.41,6.43-.62-1.75-11.98-1.79-23.06,6.61-32.53ZM164.15,225.54c1.64.51,2.53.83,3.44,1.07,6.51,1.69,11.07,5.22,12.06,12.34.15,1.06.79,2.08,1.34,3.03.18.32.8.39,1.39.65.7-1.06,1.36-2.05,2.13-3.22.99,1.37,1.77,2.44,3.07,4.24,1.02-2.2,2.06-3.66,2.37-5.27,1.15-5.92,4.88-9.3,10.29-11.26,1.61-.58,3.18-1.27,4.95-1.98-3.29-3.46-4.48-3.96-7.94-3.12-1.88.46-3.75,1.07-5.51,1.87-4.39,2-8.75,2.08-13.21.28-1.95-.79-3.95-1.45-5.96-2.09-3.38-1.07-5.91.15-8.42,3.45ZM230.06,584.49c4.66,4.38,7.35,9.08,8.49,14.65.19.91.56,2.1,1.25,2.53,4.43,2.77,4.76,7.43,5.69,11.83.38,1.78.68,3.58,1.06,5.62,2.99-1.18,3.55-3.25,4-5.29,1.53-6.95.33-13.61-2.67-19.9-3.06-6.41-5.95-10.59-17.81-9.42ZM220.07,585.4c1.94,3.7,4.36,7.23,5.68,11.13,1.32,3.92,1.98,8.2,2.13,12.35.14,4.07-.72,8.17-1.16,12.45,4.16-1.85,6.18-6.67,6.02-14.28-.2-9.51-4.29-16.9-12.66-21.65ZM252.13,588.12c1.6,4.72,2.2,9.18,4.46,12.49,2.94,4.29,5.08,8.61,5.66,13.89,5.31-6.66.16-20.72-10.13-26.38ZM204.8,620.7c3.78-.27,4.22-.63,5.13-3.84,2.77-9.74-1.28-17.34-7.62-24.26,3.92,8.93,6.61,17.95,2.49,28.11ZM293.64,86.73c-.47-.36-.95-.71-1.42-1.07-3.46,4.39-6.69,8.98-9.65,13.73-1.06,1.71-.34,3.69,1.65,5.35,3.23-6.18,6.33-12.1,9.42-18.01Z"/>
    <path class="cls-1" d="M248.42,107.18c10.14,4.62,16.14,16.92,13.07,26.88-1.95-.46-3.92-.93-6.12-1.45-1.1,5.79-.02,11.17.97,16.59,1.22,6.71,2.39,13.44,3.37,20.19.57,3.89.35,7.8-1.22,11.53-3.35,7.91-12.16,10.99-19.59,6.55.79-.47,1.38-1.01,2.07-1.21,4.91-1.43,7.93-4.74,9.94-9.34,1.42-3.25,3.26-6.31,5-9.41,1.98-3.52.49-6.41-1.23-9.3-4.11.1-6.58,2.33-8.64,5.2-1.33,1.85-2.51,3.81-3.89,5.62-2.9,3.78-7.01,4.68-12.23,5.2,4.09-3.27,7.71-5.67,10.69-8.7,2.94-2.98,5.24-6.6,7.81-9.93-2.91-2.88-4.5-3.1-6.83-.57-1.41,1.53-2.43,3.44-3.54,5.24-2.39,3.89-5.58,6.96-9.96,8.2-6.87,1.94-9.14,6.69-9.03,13.23.01.64-.09,1.28-.16,2.33-2.71-1.24-2.71-4.11-4.46-6.08-.68,1.26-1.31,2.41-2.11,3.87-.42-.84-.86-1.37-.93-1.94-1.14-9.54,1.03-18.09,7.69-25.27,4.17-4.49,9.37-6.29,15.41-5.83.81.06,1.63.18,2.44.13,2.29-.16,4.72,1.57,6.87-.8,2.57-2.85,4.67-5.75,4.64-9.86-.09-10.22-.03-20.45-.03-31.08ZM226.78,158.48c-1.06-.55-1.59-1.02-2.17-1.08-.99-.1-2.54-.3-2.9.21-.63.9-.93,2.41-.64,3.47.25.89,1.42,1.75,2.38,2.17,4.46,1.94,9.57-1.01,10.07-5.89.11-1.04-.61-2.92-1.29-3.11-1.15-.31-2.78.14-3.84.83-.77.49-.94,1.9-1.6,3.4Z"/>
    <path class="cls-1" d="M115.67,133.27c-2.42.24-3.98.4-5.45.54-3.52-8.2,1.77-20.21,11.36-25.71,0,2.5-.05,4.82.01,7.13.06,2.44.34,4.88.32,7.31-.03,4.39-.26,8.78-.33,13.17-.07,4.38.96,8.29,4.37,11.46,1.8,1.67,3.36,2.67,5.99,2.15,2.52-.5,5.18-.35,7.78-.34,4.64.02,8.61,1.89,11.75,5.17,7.15,7.46,9.64,16.37,7.68,26.51-.05.25-.4.45-.87.96-.31-.66-.6-1.13-.77-1.64-.2-.6-.31-1.23-.62-2.53-1.63,2.62-2.94,4.74-4.88,7.88-.18-2.06-.42-3.04-.33-3.99.29-2.83-.05-5.5-1.47-8.01-1.09-1.91-2.39-3.41-4.74-3.81-7.01-1.2-11.69-5.16-14.22-11.86-1.78-4.71-5.88-6.2-9.62-1.94,5.11,6.33,9.58,13.33,17.47,17.07-4.34,1-7.63-.68-10.33-3.62-1.75-1.91-3.27-4.04-4.79-6.15-2.13-2.96-5.01-4.43-9.07-4.85-.55,2.09-1.25,4.07-1.52,6.1-.13.97.38,2.15.9,3.07,1.75,3.09,4.06,5.93,5.36,9.18,1.96,4.88,4.9,8.34,10.03,9.8.55.16,1.02.62,1.66,1.02-6.78,3.56-15.23.66-18.25-6.61-1.39-3.33-2-7.28-1.84-10.9.25-5.81,1.36-11.6,2.24-17.38.61-4.02,1.58-7.98,2.13-12,.3-2.2.05-4.47.05-7.18ZM138.39,153.96c-.79,7,4.35,11.65,9.82,9.41,1.65-.67,3.3-1.61,2.63-3.97-.59-2.1-1.78-2.63-4.49-1.96-.58.14-1.16.26-1.87.42-.53-1.41-.98-2.57-1.48-3.9h-4.61Z"/>
    <path class="cls-1" d="M133.4,92.42c.7-1.71.9-2.63,1.39-3.35,7.24-10.72,17.41-17.89,29.04-22.94,6.09-2.64,12.52-1.69,18.46,1.1,2.41,1.13,4.33,1.49,6.74.12,8.08-4.59,16.03-4.1,24.05.51,7.95,4.57,15.44,9.63,21.26,16.83.85,1.06,1.52,2.27,1.66,4.07-.94-.45-1.88-.92-2.83-1.35-8.45-3.78-16.87-7.61-25.35-11.29-6.23-2.7-12.41-2.18-18.31,1.02-2.48,1.35-4.52,1.71-7.18.06-5-3.1-10.46-3.07-15.98-1.17-10.51,3.62-20.16,8.98-29.74,14.49-.79.46-1.57.93-3.21,1.9Z"/>
    <path class="cls-1" d="M232.2,106.28c-10.38-3.39-21.1-4.35-31.61-6.33-4.05-.76-7.83-2.22-10.45-5.73-1.75-2.34-1.91-2.95-1.33-6.77,2.25.73,4.45,1.71,6.74,2.12,2.22.39,4.55.1,6.82.27,12.41.92,21.78,7.44,29.82,16.44Z"/>
    <path class="cls-1" d="M182.16,87.18c1.45,4.43-.18,7.07-2.82,9.32-3.07,2.63-6.81,3.85-10.67,4.5-9.47,1.58-18.93,3.12-27.87,6.82-.37.15-.91-.08-1.94-.21,9.17-9.54,18.8-17.16,32.46-17.2,3.77-.01,7.46-.08,10.84-3.24Z"/>
    <path class="cls-1" d="M231.72,75.01c14.9,5.02,28.63,11.62,36.22,26.44,2.15,4.21,3.63,8.59,4.03,14.3-3.35-3.73-5.92-6.97-8.88-9.79-2.93-2.79-6.27-5.15-9.72-7.93,1.55-2.79.22-5.17-1.82-7.04-4.53-4.15-9.2-8.15-13.92-12.08-1.81-1.5-3.93-2.62-5.9-3.91Z"/>
    <path class="cls-1" d="M138.86,76.08c-4.58,3.57-9.24,7.04-13.69,10.76-2.61,2.18-4.91,4.74-7.33,7.15-1.78,1.78-2.42,3.74-.67,5.68-6.17,5.13-12.12,10.06-18.55,15.4.23-1.72.26-3.11.6-4.41,1.25-4.78,3.37-9.16,6.6-12.93,8.86-10.35,20-17.35,33.03-21.66Z"/>
    <path class="cls-1" d="M189.27,109.61c2.26,5.29,6.78,8.22,10.87,11.67,3.32,2.81,6.13,6.22,7.1,10.82.34,1.64,1.55,3.14,2.55,4.58,4.01,5.75,3.71,12.42-1.7,18.65,1.45-6.85-1.95-11.73-3.18-17.1-1.47-6.39-4.3-10.38-10.18-13.43-5.89-3.05-7.65-9.17-5.45-15.2Z"/>
    <path class="cls-1" d="M182.31,109.17c2.16,8.04-.41,14.12-8.09,17.63-4.39,2-6.73,4.71-7.31,9.29-.1.79-.4,1.58-.72,2.32-1.09,2.52-2.56,4.94-3.26,7.56-.68,2.55-.58,5.3-.9,8.76-3.22-4.68-4.7-9.29-2.63-13.72,2.83-6.06,4.79-12.73,9.85-17.58.47-.45.87-.97,1.36-1.39,2.23-1.88,4.7-3.54,6.66-5.66,1.82-1.96,3.11-4.42,5.03-7.23Z"/>
    <path class="cls-1" d="M200.6,112.54c8.57.14,16.03-.8,22.8,3.43,3.92,2.45,7.18,5.31,8.39,10.49-3.26-1.42-6.02-2.93-8.97-3.84-2.92-.91-6.08-1.02-9.03-1.84-4.75-1.32-8.72-4.05-13.19-8.24Z"/>
    <path class="cls-1" d="M169.47,113.4c-4.77,3.89-9.3,7.63-15.83,8.51-4.67.63-9.11,2.88-13.8,4.46-.63-2.22,1.25-3.99,2.82-5.71,3.74-4.09,8.55-6.49,13.9-7.48,4.2-.77,8.53-.56,12.91.22Z"/>
    <path class="cls-1" d="M224.05,146.28c2.41-3.29,4.23-5.88,6.17-8.37,1.69-2.17,3.58-4.18,5.3-6.33,2.01-2.52,2.97-2.85,5.67-1.03,1.68,1.13,3.06,2.7,4.74,4.22-3.43,4.59-7.04,7.63-12.47,8.4-2.78.39-5.42,1.75-9.41,3.11Z"/>
    <path class="cls-1" d="M146.21,145.66c-3.82-.95-7.21-1.84-10.61-2.64-4.16-.98-7.38-3.15-9.67-7.35,1.44-1.32,2.7-2.82,4.27-3.83,2.89-1.86,4.04-1.38,6.15,1.5,1.14,1.56,2.68,2.82,3.96,4.29,1.49,1.71,2.94,3.47,4.31,5.28.66.87,1.11,1.9,1.59,2.75Z"/>
    <path class="cls-1" d="M139.83,199.28c-1.59,4.61-3.99,8.53-6.83,12.2-2.73,3.53-5.51,7.02-8.27,10.53-2.24-3.54-2.17-5.55,1.15-9.27,4.09-4.58,8.46-8.9,12.73-13.32.15-.15.53-.07,1.21-.14Z"/>
    <path class="cls-1" d="M245.52,223.97c-1.38-6.75-5.37-10.91-8.81-15.43-1.85-2.43-3.56-4.96-3.92-9.32,5.01,5.34,9.51,9.78,13.58,14.6,2.72,3.22,2.39,5.17-.85,10.15Z"/>
    <path class="cls-1" d="M150.57,145.71c-5.6-5.6-5.13-13,1.25-17.98-.42,6.09-.82,11.75-1.25,17.98Z"/>
    <path class="cls-1" d="M221.05,145.96c-.31-3.8-.45-6.84-.85-9.83-.38-2.83-1.04-5.63-1.66-8.84,7.09,3.88,8.05,10.62,2.5,18.67Z"/>
    <path class="cls-1" d="M193.34,133.61c4.45,3.9,10.05,6.94,10.08,14.36-5.73-4.25-10.53-10.77-10.08-14.36Z"/>
    <path class="cls-1" d="M176.9,133.5c1.63,2.52.75,4.52-.78,6.21-2.43,2.7-5.02,5.25-8.2,8.55-.26-7.6,6.41-9.88,8.98-14.77Z"/>
    <path class="cls-1" d="M158.98,211.11c-1.19-.81-2.23-1.16-2.28-1.61-.37-3.31.2-6.49,2.28-9.39v11Z"/>
    <path class="cls-1" d="M206.38,162.91c2.29-4.37,6.21-7.14,9.97-10.06-2.24,4.41-5.61,7.73-9.97,10.06Z"/>
    <path class="cls-1" d="M164.99,164.01c-3.31-3.45-6.63-6.89-9.94-10.34,4.53,2.12,8.11,5.27,10.68,9.53-.25.27-.5.54-.74.8Z"/>
    <path class="cls-1" d="M210.48,210.17c.27-3.56.53-6.84.84-10.84,2.2,3.47,2.11,6.68,2.05,9.82-.03,1.86-1.22,1.99-2.89,1.02Z"/>
    <path class="cls-1" d="M123.48,50.83c.58-.72.96-1.32,1.46-1.81,8.01-7.7,16.69-14.48,26.91-19.03,7.41-3.3,14.91-4.56,22.43-.24.66.38,1.25.9,1.95,1.42-9.28,2.44-18.55,4.12-27.23,7.35-8.71,3.24-16.84,8.03-25.53,12.3Z"/>
  </g>
</svg>