<?xml version="1.0" encoding="UTF-8"?>
<svg id="Capa_1" data-name="Capa 1" xmlns="http://www.w3.org/2000/svg" viewBox="0 0 729.19 707.65">
  <defs>
    <style>
      .cls-1 {
        fill: #000;
      }

      .cls-1, .cls-2 {
        stroke-width: 0px;
      }

      .cls-2 {
        fill: #fff;
      }
    </style>
  </defs>
  <path class="cls-1" d="M597.95,379.41c10.01,1.09,20.72,2.24,31.41,3.43,18.35,2.04,36.71,4.01,55.03,6.34,1.85.24,4.75,2.74,4.82,4.29.15,3.39-2.91,3.8-5.84,3.47-16.37-1.86-32.73-3.73-49.1-5.51-12.07-1.31-24.16-2.55-36.25-3.61-1.36-.12-3.69.78-4.14,1.82-4.45,10.35-8.59,20.83-13.05,31.84,4.55,1.65,9.49,3.32,14.34,5.22,30.03,11.7,60.04,23.45,90.05,35.19,1.08.42,2.49.7,3.08,1.52,1.03,1.44,1.55,3.25,2.28,4.91-1.81.74-3.62,2.08-5.42,2.05-1.85-.03-3.66-1.42-5.52-2.15-24.55-9.75-49.05-19.61-73.66-29.18-9.73-3.78-19.71-6.92-29.37-10.27-7.41,9.72-14.72,19.16-21.75,28.79-.67.92.04,3.35.77,4.73,9.52,17.91,13.77,37.02,12.97,57.21-.82,20.52-6.69,39.56-17.93,56.79,4.45,4.2,8.75,8.27,13.14,12.41,6.16-4.74,7.74-4.62,13.93,1.55,21,20.91,42.13,41.7,62.99,62.75,17.02,17.18,10.2,45.56-12.63,52.95-12.06,3.91-22.71.94-31.63-7.86-21.33-21.05-42.55-42.22-63.8-63.35-6.23-6.2-6.3-7.31-1.17-14.16-4.03-4.13-8.06-8.26-12.19-12.48-13.98,8.8-28.88,14.44-45.11,16.83-52.59,7.74-104.44-24.64-119.98-75.41-1.39-4.54-3.15-6.08-8.02-6.14-16.19-.21-32.45-1.48-47.16-8.86-7.27-3.65-13.43-9.5-20.15-14.28-1.68-1.19-3.45-2.68-5.37-3.05-18.72-3.6-36.64-9.46-53.6-18.22-1.06-.55-2.9-.61-3.92-.06-5.8,3.15-11.98,3.23-17.21.01-9.72-5.97-19.4-12.24-28.09-19.58-13.91-11.74-25.67-25.63-35.7-40.86-1.84-2.79-3.5-3.59-6.81-2.59-34.99,10.55-70.02,20.94-105.04,31.38-.95.28-2.01.97-2.85.76-1.97-.49-3.82-1.4-5.73-2.15,1.09-1.74,1.83-4.54,3.34-5.06,9.58-3.28,19.32-6.1,29.03-8.99,25.15-7.5,50.32-14.97,75.47-22.46,1.58-.47,3.12-1.07,5.28-1.81-1.1-2.07-2.21-3.83-3.02-5.72-5.03-11.73-10.22-23.41-14.85-35.3-1.35-3.48-2.6-4.91-6.51-4.79-29.45.89-58.92,1.54-88.37,2.26-1.33.03-2.85.43-3.94-.07-1.33-.61-3.22-2-3.21-3.04,0-1.41,1.28-3.49,2.56-4.06,1.87-.84,4.21-.72,6.36-.78,28.62-.77,57.25-1.51,85.88-2.25.99-.03,1.97-.1,3.51-.18-.81-4.55-1.72-8.85-2.31-13.18-.81-5.93-1.64-11.88-1.97-17.84-.19-3.43-1.57-4.78-4.75-5.68-30.21-8.55-60.37-17.25-90.55-25.91-.8-.23-1.59-.5-2.39-.68-2.77-.63-4.77-2.03-3.94-5.16.83-3.14,3.17-3.3,5.95-2.49,10.54,3.04,21.11,5.94,31.65,8.95,20.91,5.98,41.8,11.99,63.1,18.1.34-7.23.49-14.14,1.02-21.01,3.62-47.03,16.31-91.8,34.17-135.23,1.75-4.25,1.74-7.02-1.46-10.89-19.43-23.53-33.94-49.68-39.69-79.99-3.56-18.8-2.61-37.51,4.23-55.53,11.31-29.77,44.78-36.4,66.12-12.71,21.32,23.65,48.62,35.9,78.59,43.53,1.89.48,4.53-.54,6.4-1.61,23.57-13.48,48.49-23.33,75.3-28.01,32.28-5.64,63.74-1.82,94.14,9.72,13.77,5.23,26.82,12.37,40.25,18.52,1.83.84,4.16,1.64,5.98,1.24,20.66-4.55,40.11-12.23,57.32-24.61,7.49-5.38,14.17-12.04,20.61-18.7,10.63-11,23.09-15.94,38.28-13.23,11.9,2.12,20.08,9.36,25.45,19.76,7.95,15.4,10,32.16,8.47,49.04-3.45,37.92-20.75,69.65-45.92,97.47-1.79,1.98-1.86,3.34-1,5.57,12.95,33.56,23.26,67.91,28.97,103.47,2.52,15.73,3.83,31.66,5.75,48.03.97-.29,2.62-.73,4.22-1.29,37.69-12.99,75.38-25.99,113.07-38.99,1.1-.38,2.34-1.22,3.29-.98,1.72.44,4.22,1.21,4.65,2.44.44,1.27-.93,3.49-2.04,4.85-.72.88-2.39,1-3.65,1.43-38.46,13.28-76.91,26.62-115.43,39.75-3.9,1.33-5.06,3.13-5.41,7.28-1.12,13.35-3,26.63-4.64,40.37ZM138.13,340.57c-2.81-21.88-2.22-42.83.26-63.64,2.06-17.3,5.38-34.45,8.33-51.63.48-2.78,1.04-6.51,5.31-5.81,3.81.63,3.28,3.92,3.35,6.77.59,21.96.83,43.93,2,65.86.94,17.54,5.03,34.44,12.81,50.41,3.42,7.02,7.66,12.11,15.77,13.32,3.08.46,6.04,1.78,9.05,2.72,12,3.74,23.99,7.47,36.11,11.25.47-1.31.81-2.23,1.13-3.16,3.58-10.26,7.79-20.18,15.18-28.39,1.91-2.11,3.81-4.46,7.18-2.45,3.34,2,2.32,4.9,1.3,7.5-2.35,6.04-4.94,11.97-7.46,17.95-6.95,16.49-9.27,33.55-6.42,51.27,7.45,46.27,55.05,65.95,93.26,38.9,7.89-5.59,12.79-11.5,10.81-21.55-.35-1.76.3-3.75-.16-5.46-.44-1.62-1.39-3.79-2.7-4.37-8.23-3.57-12.57-9.74-14.39-18.41-.56-2.65-2.94-5.5-5.29-7.06-3.83-2.54-8.42-3.91-12.52-6.1-12.23-6.53-18.78-20.03-15.92-33.07.38-1.75,2.3-3.16,3.5-4.73,1.5,1.31,3.47,2.36,4.4,3.99,1.93,3.38,3.32,7.08,5.2,11.26,9.56-7.92,19.46-7.06,29.46-3.62,9.47,3.26,18.87,3.71,28.35.37,10.5-3.7,20.77-4.84,30.8,3.17,1.77-3.99,3.04-7.58,4.93-10.81,1.03-1.76,3.1-2.91,4.7-4.33,1.18,1.78,3.12,3.45,3.42,5.37,2.21,14.2-4.27,26.35-17.23,32.86-4.15,2.09-8.47,3.87-12.51,6.15-1.59.9-3.59,2.7-3.75,4.26-1.1,10.99-6.89,18.1-17.21,21.65,0,6.64-.1,12.96.08,19.28.04,1.28.82,2.89,1.8,3.74,2.59,2.26,5.47,4.18,8.39,6.36,23.71-30.6,54.81-45.48,93.14-45.83.93-13.78-1.55-26.56-6.29-38.93-2.91-7.59-6.27-15.01-9.27-22.57-1.07-2.7-1.74-6.19,1.68-7.25,1.84-.57,5.46.76,6.58,2.39,4.56,6.68,8.75,13.66,12.51,20.82,2.26,4.31,3.48,9.17,5.16,13.78,18.45-6.63,36.6-13.05,54.64-19.76,2.21-.82,4.52-2.87,5.6-4.96,6.37-12.39,9.8-25.7,11.66-39.47,3.61-26.67,3.05-53.47,2.79-80.27-.03-3.37-1.85-8.32,3.49-8.94,4.8-.56,4.76,4.43,5.54,7.55,7.94,31.63,11.34,63.81,10.96,96.39-.05,4.63-.62,9.25-.99,14.53,6.93-2.42,13.28-4.76,19.71-6.82,2.64-.84,3.72-2.11,3.48-4.97-.91-10.94-1.1-21.96-2.5-32.83-4.9-37.92-14.86-74.61-28.65-110.19-6.47-16.69-14.76-32.67-21.56-49.25-3.67-8.96-8.54-16.86-15.4-23.52-1.29-1.25-3.78-2.25-5.44-1.93-4.41.87-7.9.17-9.18-4.36-1.28-4.52,1.78-6.7,5.46-8.8,8.03-4.59,16.35-8.97,23.49-14.75,12.85-10.39,21.95-24.07,29.53-38.61,6.47-12.41,15.94-19.14,30.48-11.99.07.03.25-.17.77-.55-3.06-7.28-7.72-12.96-15.78-14.98-10.29-2.58-18.97.6-26.34,7.95-5.41,5.4-10.47,11.24-16.36,16.05-16.72,13.63-35.97,22.54-56.5,28.82-.98.3-1.9.81-3.26,1.4,2.57,1.99,4.74,3.52,6.74,5.25,3.68,3.18,4.3,7.07,1.54,10.02-3.16,3.38-6.43,2.58-9.71,0-17.52-13.81-37.01-24.08-57.74-32.12-36.14-14.01-72.88-17.34-110.43-6.22-27.84,8.24-53.57,20.71-76.72,38.37-4.22,3.22-7.6,3.09-10.09-.03-2.38-2.99-1.63-6.59,2.17-9.97,2.03-1.8,4.16-3.49,6.64-5.55-1.36-.51-2.11-.83-2.87-1.08-28.32-9.05-54.01-22.28-73.94-45.19-2.89-3.32-7.4-5.81-11.65-7.27-13.08-4.48-26.87,2.87-29.71,15.44,1-.43,1.88-.81,2.77-1.18,10.99-4.61,19.23-2.06,25.7,8.01,1.35,2.09,2.49,4.32,3.69,6.5,12.62,22.98,28.76,42.36,53.79,52.71,3.59,1.48,5.02,4.4,3.7,8.12-1.43,4.03-4.79,5.41-8.43,3.75-6.77-3.1-13.65-6.22-19.8-10.37-19.12-12.91-32.43-30.94-42.55-51.3-5.2-10.46-14.76-10.97-20.78-.65-.59,1-1.2,2-1.71,3.04-5.15,10.39-3.34,21.22-1.31,31.8,5.16,26.92,18.44,50.02,34.91,71.48.45.59,1.18.97,1.67,1.35,4.99-9.12,9.76-18.06,14.75-26.88,2.59-4.57,6.36-5.91,9.8-3.92,3.44,1.99,3.98,5.62,1.21,10.44-22.51,39.26-37.38,81.43-47.52,125.36-5.36,23.24-8.61,46.77-8.36,70.69.02,1.63.51,4.37,1.43,4.69,7.13,2.46,14.42,4.44,22.33,6.77ZM458.59,612.81c53.85.06,97.02-43.4,97.03-97.68.02-53.82-43.23-97.13-97.03-97.16-52.94-.03-96.51,43.59-96.57,96.68-.06,54.49,42.84,98.09,96.56,98.15ZM145.81,430.56c.81,1.45,1.21,2.33,1.76,3.11,12.17,17.22,26.17,32.75,43.14,45.38,4.09,3.05,8.6,5.7,13.26,7.76,2.03.9,5.26.55,7.37-.45,4.62-2.17,8.59-1.88,13.29.07,12.69,5.28,25.61,9.97,38.47,14.83,1.42.54,3.03.57,3.61.68-1.39-10.6-2.61-20.95-4.21-31.24-.33-2.13-1.57-4.73-3.24-5.95-12.34-9-21.34-20.49-26.19-34.94-2.45-7.31-3.92-14.94-5.94-22.81-26.87,7.79-53.9,15.62-81.32,23.57ZM562.35,156.14c.78-.36,1.17-.42,1.35-.64,19.75-23.64,34.07-49.98,38.81-80.75,1.48-9.64,2.1-19.46-3.41-28.63-5.57-9.26-15.69-11.78-21.08.3-.34.76-.77,1.47-1.17,2.2-11.07,20.68-25.01,38.86-44.99,51.8-.36.24-.53.78-.73,1.08,13.36,16.53,22.73,35.2,31.23,54.63ZM275.89,473.27c.98,17.29,4.61,32.62,18.4,43.28,16.21,12.53,35.49,13.32,55.31,13.82-2.63-24.62,1.28-47.49,12.89-68.82-3.54-2.58-6.61-4.8-9.95-7.23-22.07,19.55-46.92,28.03-76.65,18.96ZM544.38,628.21c1.96,1.74,4.15,3.51,6.13,5.48,17.96,17.82,35.92,35.65,53.82,53.53,4.55,4.55,9.62,7.86,16.34,6.83,7.75-1.18,13.11-5.66,15.49-13.12,2.35-7.37.08-13.63-5.37-19.03-19.28-19.09-38.47-38.27-57.71-57.41-.91-.91-1.9-1.74-2.42-2.21-8.69,8.58-17.17,16.95-26.28,25.93ZM122.07,381.67c4.25,13.89,9.81,26.55,16.93,38.59,1.59,2.69,3.11,3.13,5.93,2.28,11.6-3.49,23.25-6.78,34.89-10.15,7.75-2.24,15.49-4.49,24.28-7.03-3.27-.65-5.4-1.03-7.49-1.51-15.4-3.5-30.09-8.43-41.23-20.53-.72-.78-1.91-1.57-2.89-1.58-9.95-.12-19.91-.07-30.43-.07ZM351.6,393.06c.65-.01,1.29-.02,1.94-.04,1.23,5.22,2.45,10.45,3.68,15.7,5.44-2.5,6.15-3.08,6.88-8.24,1.12-7.89,5.17-13.5,12.3-16.93,3.29-1.58,6.63-3.05,9.88-4.7,1.64-.83,3.13-1.95,4.78-2.99-5.79-5.97-11.96-5.63-18.51-3.51-8.89,2.87-17.88,5.43-27.34,3.39-5.67-1.22-11.23-2.91-16.84-4.38-5.68-1.49-10.18.55-14.75,4.96,3.9,1.99,7.17,3.94,10.65,5.36,9.09,3.71,15.41,9.54,16.78,19.79.57,4.25,3.51,6.32,7.34,7.43,1.14-5.6,2.18-10.73,3.22-15.86ZM567.77,417.32c4.63-10.38,9.12-20.47,13.94-31.28-7.93-.59-14.72-.89-21.46-1.67-6.12-.7-11.6-.81-16.15,4.64-2.25,2.69-5.78,4.47-9,6.16-5.06,2.64-10.34,4.85-15.85,7.39,16.04,4.88,31.75,9.66,48.51,14.77ZM546.3,447.87c5.84-8,11.18-15.31,16.99-23.26-8.26-2.62-15.56-5.31-23.04-7.23-15.96-4.1-31.2-11.56-48.31-10.59-1.74.1-3.64-1.25-5.34-2.17-3.22-1.73-6.35-3.63-10.41-5.97v7.5c28.13,5.1,51.56,18.46,70.1,41.73ZM584.33,378.1c2.04-13.31,4-26.05,6.14-39.96-8.81,3.08-16.29,5.63-23.7,8.37-.84.31-1.57,1.6-1.86,2.59-2.61,8.86-5.11,17.76-7.74,27,8.17.6,17.04,1.26,27.16,2.01ZM114.23,342.12c1.85,10.54,3.45,19.96,5.24,29.35.15.8,1.55,1.94,2.39,1.96,8.54.14,17.08.09,25.4.09-2.45-7.67-4.73-14.9-7.11-22.1-.28-.86-.93-2.02-1.65-2.24-7.57-2.3-15.18-4.44-24.28-7.06ZM553.16,599.7c-3.95-4.23-7.49-8.01-10.29-11.01-4.12,3.7-8.16,7.31-11.79,10.56,3.71,3.93,7.26,7.69,10.81,11.44,3.92-3.82,7.81-7.61,11.27-11ZM504.03,383.62c-10.18.56-19.23,1.06-28.78,1.58.28,2.33.5,4.22.6,5.07,11.7,7.93,19.73,2.1,28.17-6.65ZM222.86,376.44c.07-.21.14-.42.21-.63-12.49-4.02-24.97-8.04-38.78-12.49,5.69,7.08,9.98,13.07,19.22,12.33,6.39-.52,12.9.47,19.36.79ZM228.04,385c-7.77-.55-14.94-1.06-22.1-1.57,2.93,3.39,6.07,5.56,9.15,7.81,3.07,2.24,6,4.69,9.2,6.74.53.34,2.95-.84,3.04-1.52.48-3.59.51-7.25.72-11.47ZM487.96,375.84c6.49,0,12.29.03,18.09,0,7.78-.05,13.33-4.11,16.39-12.34-11.67,4.18-22.96,8.22-34.48,12.34Z"/>
  <path class="cls-2" d="M271.61,403.39c2.03-2.95,4.24-4.76,4.08-6.32-.16-1.59-2.67-4.08-4.15-4.08-1.47,0-3.97,2.52-4.11,4.1-.13,1.58,2.1,3.36,4.17,6.3ZM278.76,419.87c-2.06,2.97-4.3,4.8-4.09,6.28.24,1.63,2.72,2.94,4.23,4.38,1.42-1.5,3.78-2.9,3.97-4.54.17-1.47-2.05-3.23-4.12-6.12ZM418.79,404.75c-2.99-2.09-4.77-4.31-6.33-4.16-1.61.15-3,2.6-4.49,4.05,1.47,1.44,2.82,3.85,4.44,4.04,1.55.18,3.36-1.95,6.38-3.93ZM298.18,405.03c-2.97-2.07-4.73-4.25-6.23-4.08-1.63.19-3.02,2.55-4.51,3.97,1.46,1.47,2.78,3.91,4.41,4.14,1.47.21,3.3-1.98,6.32-4.03ZM439.21,396.13c-3-1.96-4.75-3.98-6.38-3.89-1.39.07-3.86,2.73-3.69,3.95.22,1.66,2.39,4.1,3.92,4.26,1.49.15,3.24-2.15,6.14-4.32ZM258.73,425.96c2.01-3.06,4.24-4.98,3.95-6.4-.32-1.58-2.82-3.55-4.56-3.74-1.16-.13-3.7,2.54-3.69,3.95.01,1.64,2.13,3.26,4.3,6.2Z"/>
  <path class="cls-1" d="M403.36,285.47c1.33-8.51,2.12-17.16,4.1-25.52,5.03-21.28,18.97-32.79,41.18-34.92,5.12-.49,10.22-1.24,15.33-1.89,10.56-1.35,17.73-6.94,21.22-17.07,1.03-2.98,1.91-6.01,3-8.96,1.13-3.07,3.19-5.21,6.73-4.69,3.74.55,5.48,3.13,5.16,6.75-1.28,14.51-7.52,26.04-20.77,32.96-2.72,1.42-4.03,2.81-4.69,6.05-3.59,17.4-11.98,31.07-30.74,35.16-4.94,1.08-10.21.99-15.32.86-6.13-.15-9.4,1.33-11.77,7.04-1.64,3.97-2.41,8.31-4.16,12.21-.8,1.78-3.05,2.9-4.65,4.32-1.27-1.73-3.07-3.3-3.65-5.24-.64-2.14-.15-4.61-.15-6.94-.27-.04-.54-.07-.81-.11ZM430.66,245.47c-.42-.15-.85-.31-1.27-.46-2.89,4.77-5.78,9.55-8.87,14.65,23.21,4.81,39.74-4.77,40.03-22.76-5.49.72-10.91,1.42-16.87,2.2,3.14,4.14,4.66,8.13,1.56,11.58-1.7,1.89-5.11,3.25-7.67,3.13-4.56-.2-6.42-3.96-6.9-8.35Z"/>
  <path class="cls-1" d="M305.15,284.5c0,2.99.39,6.05-.15,8.94-.3,1.59-2.02,3.88-3.34,4.05-1.31.17-3.64-1.6-4.26-3.06-1.76-4.09-2.7-8.53-4.28-12.71-2.27-5.97-5.53-8.18-11.86-7.57-29.2,2.81-42.94-16.27-46.45-36.31-.35-1.98-2.3-4.34-4.14-5.29-12.97-6.71-19.24-17.81-21.36-31.7-.6-3.94.38-7.61,4.85-8.56,4.67-1,6.44,2.35,7.57,6.12.24.79.42,1.6.67,2.4,5,16.29,11.79,21.69,28.87,23.28,5.95.55,11.96,1.08,17.77,2.37,19.71,4.38,30.03,17.76,33.84,36.79,1.4,6.98,2.01,14.11,2.98,21.18-.23.02-.46.04-.69.06ZM248.31,236.94c4.64,20.32,17.85,27.7,40.69,22.71-3.2-4.96-6.19-9.58-9.17-14.2-2.94,7.34-7.08,10.35-12.12,8.31-1.69-.68-3.91-2.31-4.18-3.81-.62-3.46-.2-7.1-.2-11.18-4-.49-9.23-1.13-15.02-1.84Z"/>
  <path class="cls-1" d="M531.61,283.86c-.87,7.07-1.33,14.22-2.7,21.2-4.41,22.52-21.37,29.82-40.06,27.31-6.52-.87-12.85-4.05-18.93-6.89-1.71-.8-2.24-4.12-3.31-6.28,2.24-.85,4.48-2.38,6.73-2.4,4.29-.03,8.57,1.02,12.87,1.24,9.06.47,15.61-3.56,19.82-11.58,6.98-13.3,10.4-27.58,11.83-42.42.14-1.49-.23-3.26.45-4.42,1.22-2.07,3.06-3.78,4.64-5.63,1.67,1.55,4.3,2.84,4.81,4.71,1.48,5.41,2.27,11.03,3.01,16.61.37,2.78.06,5.65.06,8.47.26.03.51.05.77.08Z"/>
  <path class="cls-1" d="M177.66,282.09c.92-6.1,1.86-14.35,3.59-22.43.46-2.14,3.22-5.12,5.18-5.32,3.74-.39,4.39,3.24,4.64,6.36,1.12,14.35,4.05,28.28,9.96,41.47,6.08,13.59,14.56,18.01,29.15,15.43,2.13-.38,4.32-1.26,6.37-.99,2.19.29,4.23,1.67,6.34,2.57-.85,1.97-1.14,4.75-2.63,5.77-12.67,8.64-26.52,10.4-40.82,5.03-13.26-4.97-18.11-16.34-20.09-29.27-.83-5.41-1.01-10.92-1.68-18.62Z"/>
  <path class="cls-1" d="M388.76,86.96c20.07,2.29,40.58,8.27,58.03,22.16,4.21,3.35,7.6,7.83,10.91,12.14.9,1.16.89,4.34-.03,5.26-1.22,1.21-4.3,2.14-5.64,1.42-17.27-9.26-36.82-10.82-55.03-16.8-5.84-1.92-11.32-5.35-16.44-8.85-3.59-2.45-6.31-6.47-4.38-11.21,1.97-4.84,6.7-4.02,12.57-4.12Z"/>
  <path class="cls-1" d="M322.49,87.07c1.5,0,3.01-.13,4.49.02,5.82.58,8.99,5.57,5.56,10.17-3.24,4.34-7.65,8.81-12.52,10.71-9.98,3.9-20.68,5.91-30.96,9.1-9.8,3.04-19.38,6.75-29.18,9.81-2.36.74-5.94,1.05-7.61-.22-3.1-2.35-1.03-5.84,1.07-7.78,6.29-5.83,12.39-12.19,19.62-16.63,15.07-9.25,31.94-13.65,49.54-15.17Z"/>
  <path class="cls-1" d="M179.87,203.01c1.45-20.76,10.47-34.84,23.87-46.48,3.37-2.92,7.07-5.65,11.03-7.62,1.88-.93,5.39-.68,6.95.56,1.1.88,1.02,4.84,0,6.53-8.74,14.37-16.76,29.06-21.95,45.14-1.63,5.05-2.83,10.26-4.77,15.18-.86,2.19-3.13,5.47-4.6,5.39-2.16-.12-5.17-2.38-6.07-4.48-2.23-5.25-3.48-10.93-4.46-14.22Z"/>
  <path class="cls-1" d="M530.01,201.23c-1.62,5.5-2.88,11.16-5.06,16.43-.81,1.95-3.7,3.99-5.78,4.13-1.4.1-3.86-2.82-4.41-4.79-5.93-21.25-14.77-41.15-26.7-59.7-1.75-2.73-3.36-5.65-.22-8.46,2.83-2.53,5.56-1.1,8.15.6,15.96,10.46,27.83,24,32.25,43.1.22.97.47,1.94.55,2.93.16,1.82.2,3.65.29,5.47.31.1.62.19.92.29Z"/>
  <path class="cls-1" d="M271.73,164.6c1-1.81,2.27-4.91,4.24-7.47,5.71-7.41,13.6-11.73,22.51-13.76,10.66-2.43,21.47-4.28,32.25-6.14,2.8-.48,6.87-1.43,7.62,2.36.45,2.26-1.26,6.15-3.22,7.46-6.13,4.08-12.57,7.99-19.39,10.66-11.85,4.64-24.1,8.26-36.15,12.39-4.55,1.56-7.92-.11-7.86-5.51Z"/>
  <path class="cls-1" d="M437.89,164.98c-.13,4.48-3.17,6.63-6.73,5.47-14.33-4.71-28.81-9.06-42.83-14.57-5.81-2.28-10.78-6.91-15.75-10.94-1.24-1.01-1.75-4.1-1.19-5.75.39-1.15,3.36-2.33,4.89-2.03,13.98,2.7,28.02,5.27,41.8,8.84,7.15,1.86,12.89,6.86,17.03,13.2,1.33,2.04,2.14,4.42,2.78,5.77Z"/>
  <path class="cls-1" d="M419.78,202.23c-.05,6.18-3.8,8.56-8.64,7.22-9.92-2.75-18.68-7.69-26.07-14.84-3.32-3.21-6.44-6.69-9.15-10.42-.91-1.26-.99-4.16-.13-5.38.84-1.18,3.68-2.02,5.11-1.51,11.06,3.96,22.41,7.58,31.38,15.59,3.31,2.96,5.66,7,7.5,9.34Z"/>
  <path class="cls-1" d="M295.8,209.82c-4.68-.05-7.4-4.33-5.07-8.83,1.56-3.02,3.81-5.91,6.39-8.12,9.26-7.95,20.74-11.64,31.98-15.64,1.35-.48,3.74.25,4.82,1.28.87.83,1.04,3.18.56,4.5-3.49,9.49-28.84,26.93-38.66,26.82Z"/>
  <path class="cls-1" d="M230.24,189.77c.6-8.65,5.28-16.02,12.65-21.73,1.09-.85,3.76-.89,4.88-.12,1.12.76,1.34,3,1.7,4.64.16.73-.25,1.63-.54,2.4-4.22,11.46-1.29,20.66,8.34,28.14,1.55,1.2,1.78,4.1,2.61,6.21-2.17.7-4.63,2.41-6.46,1.9-5.19-1.47-10.38-3.38-15.09-6-5.47-3.04-8.1-8.64-8.11-15.44Z"/>
  <path class="cls-1" d="M474.11,194.59c-1.19,2.13-2.45,7-5.6,9.43-4.97,3.84-11.08,6.33-16.97,8.76-1.56.64-4.08-1.02-6.15-1.63.62-2.02.6-4.81,1.96-5.94,9.44-7.88,11.28-17.32,7.24-28.61-.67-1.87.65-4.44,1.05-6.69,2.22.44,5.02.17,6.57,1.43,6.6,5.37,11.4,11.99,11.91,23.25Z"/>
  <path class="cls-1" d="M497.03,257.49c.1,13.52-7.48,23.34-20.07,26.08-1.84.4-4.95-.47-5.87-1.83-.78-1.17.12-4.45,1.36-5.81,6.34-6.95,11.11-14.74,14.71-23.42.9-2.17,3.58-3.6,5.44-5.36,1.41,2.2,3.04,4.29,4.14,6.63.59,1.25.25,2.94.29,3.71Z"/>
  <path class="cls-1" d="M271.61,403.39c-2.07-2.93-4.31-4.72-4.17-6.3.13-1.58,2.64-4.1,4.11-4.1,1.48,0,3.98,2.49,4.15,4.08.16,1.57-2.05,3.38-4.08,6.32Z"/>
  <path class="cls-1" d="M278.76,419.87c2.07,2.89,4.29,4.65,4.12,6.12-.19,1.65-2.55,3.04-3.97,4.54-1.51-1.45-3.99-2.75-4.23-4.38-.22-1.47,2.03-3.3,4.09-6.28Z"/>
  <path class="cls-1" d="M418.79,404.75c-3.02,1.98-4.83,4.11-6.38,3.93-1.61-.19-2.97-2.6-4.44-4.04,1.49-1.44,2.88-3.89,4.49-4.05,1.56-.15,3.34,2.07,6.33,4.16Z"/>
  <path class="cls-1" d="M298.18,405.03c-3.03,2.05-4.85,4.24-6.32,4.03-1.64-.24-2.95-2.67-4.41-4.14,1.49-1.42,2.88-3.78,4.51-3.97,1.49-.17,3.26,2.01,6.23,4.08Z"/>
  <path class="cls-1" d="M439.21,396.13c-2.9,2.17-4.65,4.47-6.14,4.32-1.53-.16-3.7-2.59-3.92-4.26-.16-1.22,2.3-3.88,3.69-3.95,1.63-.09,3.38,1.93,6.38,3.89Z"/>
  <path class="cls-1" d="M258.73,425.96c-2.17-2.93-4.28-4.56-4.3-6.2-.01-1.4,2.53-4.07,3.69-3.95,1.73.19,4.24,2.16,4.56,3.74.28,1.42-1.94,3.34-3.95,6.4Z"/>
  <path class="cls-1" d="M459.22,602.27c-47.6.41-85.95-37.82-86.42-86.15-.47-47.61,37.4-86.91,84.13-87.33,48.75-.43,87.61,37.11,87.95,84.95.35,49.15-37.36,88.11-85.66,88.53ZM458.67,588.94c40.13.08,73-32.72,73.13-73,.14-41.14-32.29-74.03-72.98-74.04-39.98,0-72.72,32.65-72.87,72.67-.15,41.27,32.13,74.28,72.72,74.36Z"/>
  <path class="cls-1" d="M465.65,452.55c21.65,2.25,45.6,17.01,53.16,44.32.66,2.39,1.18,4.85,1.47,7.31.48,4.04-1.2,6.9-5.36,7.58-4.06.67-6.69-1.31-7.79-5.25-1.1-3.98-1.65-8.2-3.3-11.94-7.27-16.54-20.24-25.74-37.92-28.68-6.05-1.01-8.72-6.67-5-10.78,1.38-1.52,3.82-2.09,4.72-2.55Z"/>
</svg>