<?xml version="1.0" encoding="utf-8"?>
<!-- Designed by Vexels.com - 2020 All Rights Reserved - https://vexels.com/terms-and-conditions/  -->
<svg version="1.1" id="Layer_1" xmlns="http://www.w3.org/2000/svg" xmlns:xlink="http://www.w3.org/1999/xlink" x="0px" y="0px"
	 viewBox="0 0 1200 1200" enable-background="new 0 0 1200 1200" xml:space="preserve">
<g>
	<path fill="none" d="M317.744,387.263l-120.578-74.088L92.145,342.517c-2.047,0.572-3.744,1.906-4.791,3.758
		c-1.04,1.848-1.3,3.994-0.732,6.037l25.797,92.319L317.744,387.263z"/>
	<path fill="none" d="M721.321,612.404l122.542-135.884H743.388L618.564,613.091h102.252
		C720.995,612.867,721.126,612.62,721.321,612.404z"/>
	<polygon fill="none" points="596.485,309.383 672.758,288.072 552.892,213.786 477.753,234.78 	"/>
	<polygon fill="none" points="709.445,277.822 806.651,250.663 688.014,176.034 589.579,203.536 	"/>
	<polygon fill="none" points="467.714,345.361 560.007,319.575 441.275,244.972 346.905,271.338 	"/>
	<path fill="none" d="M956.647,208.754l116.606-32.579l-25.79-92.319c-0.575-2.047-1.903-3.744-3.751-4.784
		c-1.212-0.681-2.539-1.027-3.888-1.027c-0.719,0-1.444,0.099-2.156,0.298L839.462,133.72L956.647,208.754z"/>
	<polygon fill="none" points="843.104,240.478 920.457,218.865 803.273,143.831 724.467,165.849 	"/>
	<polygon fill="none" points="354.556,376.978 430.856,355.66 310.046,281.636 233.978,302.89 	"/>
	<polygon fill="none" points="881.614,476.519 758.452,613.091 840.299,613.091 961.48,476.519 	"/>
	<path fill="none" d="M877.783,613.091h234.75c0.394,0,0.765,0.084,1.15,0.116V476.519H998.965L877.783,613.091z"/>
	<path fill="none" d="M116.046,476.519v136.572h98.924c0.488-2.435,1.581-4.779,3.388-6.738l119.584-129.834H116.046z"/>
	<path fill="none" d="M586.703,606.394l118.703-129.875h-79.148L502.975,613.091h80.381
		C583.841,610.675,584.918,608.346,586.703,606.394z"/>
	<path fill="none" d="M1113.683,1104.99V641.007c-0.385,0.032-0.756,0.116-1.15,0.116h-265.87c-0.022,0-0.044,0.007-0.067,0.007
		c-0.026,0-0.051-0.007-0.077-0.007H116.046v463.867c0,9.357,7.618,16.974,16.974,16.974h963.689
		C1106.065,1121.965,1113.683,1114.347,1113.683,1104.99z M1021.378,976.868H213.991c-7.741,0-14.018-6.276-14.018-14.018
		s6.276-14.018,14.018-14.018h807.387c7.741,0,14.018,6.276,14.018,14.018S1029.119,976.868,1021.378,976.868z M1021.378,824.344
		H213.991c-7.741,0-14.018-6.276-14.018-14.018s6.276-14.018,14.018-14.018h807.387c7.741,0,14.018,6.276,14.018,14.018
		S1029.119,824.344,1021.378,824.344z"/>
	<path fill="none" d="M335.221,606.339l119.873-129.82h-79.043l-125.79,136.572h81.564
		C332.314,610.651,333.41,608.302,335.221,606.339z"/>
	<path fill="none" d="M465.835,612.397l122.656-135.878h-95.231L367.152,613.091h98.172
		C465.505,612.865,465.638,612.615,465.835,612.397z"/>
	<path fill="#181918" d="M1141.718,1104.99V462.502c0-7.741-6.276-14.018-14.018-14.018H202.812l891.487-249.079
		c3.58-0.999,6.619-3.381,8.439-6.622c1.828-3.237,2.293-7.07,1.287-10.65L1074.464,76.32c-2.587-9.261-8.617-16.957-16.995-21.677
		c-8.378-4.716-18.076-5.883-27.344-3.302L84.602,315.516c-9.261,2.587-16.954,8.624-21.67,16.995
		c-4.723,8.378-5.893,18.087-3.306,27.344l28.463,101.865c-0.015,0.264-0.079,0.515-0.079,0.783V625.48
		c-0.063,0.541-0.164,1.071-0.164,1.629c0,0.558,0.101,1.088,0.164,1.629v476.252c0,24.818,20.191,45.01,45.01,45.01h963.689
		C1121.527,1150,1141.718,1129.809,1141.718,1104.99z M1113.683,613.207c-0.385-0.032-0.756-0.116-1.15-0.116h-234.75
		l121.182-136.572h114.718V613.207z M758.452,613.091l123.162-136.572h79.865L840.299,613.091H758.452z M214.97,613.091h-98.924
		V476.519h221.896L218.358,606.353C216.551,608.313,215.457,610.657,214.97,613.091z M376.051,476.519h79.043l-119.873,129.82
		c-1.811,1.962-2.907,4.312-3.396,6.752h-81.564L376.051,476.519z M493.259,476.519h95.231L465.835,612.397
		c-0.197,0.218-0.33,0.468-0.511,0.695h-98.172L493.259,476.519z M626.257,476.519h79.148L586.703,606.394
		c-1.785,1.952-2.862,4.28-3.346,6.697h-80.381L626.257,476.519z M743.388,476.519h100.474L721.321,612.404
		c-0.195,0.216-0.326,0.463-0.505,0.688H618.564L743.388,476.519z M310.046,281.636l120.81,74.023l-76.3,21.318L233.978,302.89
		L310.046,281.636z M441.275,244.972l118.732,74.603l-92.293,25.786l-120.809-74.023L441.275,244.972z M552.892,213.786
		l119.866,74.286l-76.273,21.31L477.753,234.78L552.892,213.786z M688.014,176.034l118.638,74.628l-97.207,27.16l-119.866-74.286
		L688.014,176.034z M803.273,143.831l117.184,75.034l-77.353,21.612l-118.637-74.628L803.273,143.831z M1037.668,78.342
		c0.712-0.198,1.437-0.298,2.156-0.298c1.348,0,2.676,0.346,3.888,1.027c1.848,1.04,3.176,2.738,3.751,4.784l25.79,92.319
		l-116.606,32.579L839.462,133.72L1037.668,78.342z M87.353,346.275c1.047-1.851,2.745-3.186,4.791-3.758l105.021-29.342
		l120.578,74.088l-205.325,57.368l-25.797-92.319C86.053,350.269,86.313,348.123,87.353,346.275z M116.046,1104.99V641.123h730.473
		c0.026,0,0.051,0.007,0.077,0.007c0.022,0,0.044-0.007,0.067-0.007h265.87c0.394,0,0.765-0.084,1.15-0.116v463.983
		c0,9.357-7.618,16.974-16.974,16.974H133.02C123.664,1121.965,116.046,1114.347,116.046,1104.99z"/>
	<path fill="#181918" d="M1021.378,796.309H213.991c-7.741,0-14.018,6.276-14.018,14.018s6.276,14.018,14.018,14.018h807.387
		c7.741,0,14.018-6.276,14.018-14.018S1029.119,796.309,1021.378,796.309z"/>
	<path fill="#181918" d="M1021.378,948.833H213.991c-7.741,0-14.018,6.276-14.018,14.018s6.276,14.018,14.018,14.018h807.387
		c7.741,0,14.018-6.276,14.018-14.018S1029.119,948.833,1021.378,948.833z"/>
</g>
</svg>
